<svg width="173" height="73" viewBox="0 0 173 73" fill="none" xmlns="http://www.w3.org/2000/svg">
<path fill-rule="evenodd" clip-rule="evenodd" d="M86.4971 71.9524V49.6013C86.7696 49.1167 87.5329 48.4383 88.4051 49.6013L88.4959 51.691C90.5857 49.571 96.1099 46.603 101.489 51.691C103.215 53.387 105.632 58.0329 101.489 63.0483C99.4595 64.926 94.0201 67.5548 88.4959 63.0483V71.9524C88.2537 72.437 87.5147 73.1154 86.4971 71.9524ZM95.2195 51.055C89.8406 51.2731 88.6171 55.3859 88.6777 57.4151C88.6777 59.414 89.6771 63.0483 95.2195 63.4117C99.6533 63.7025 101.246 59.5351 101.489 57.4151C101.489 55.4162 100.598 50.837 95.2195 51.055Z" fill="white"/>
<path d="M59.4214 64.6865V49.4224C60.2936 48.114 61.1174 48.8772 61.4203 49.4224L61.5111 50.6943C62.1471 50.1492 62.874 49.0589 66.1449 48.7863C68.7776 48.567 71.0512 50.6944 71.869 51.8755C73.2318 49.5132 75.8667 48.7863 77.593 48.7863C82.0269 48.5683 83.9228 52.6327 84.3165 54.6921V64.6865C83.517 65.7768 82.5902 65.1408 82.2268 64.6865V54.6921C79.7736 47.8778 73.4135 51.2395 72.9593 54.6921L72.8684 64.6865C72.0688 65.8495 71.1421 65.1711 70.7787 64.6865L70.8695 54.6921C68.1438 47.5143 61.602 51.7847 61.5111 54.6921L61.4203 64.6865C60.6207 65.8495 59.7545 65.1711 59.4214 64.6865Z" fill="white"/>
<path d="M134.106 34.9804L121.568 46.3377L126.747 51.6074L137.923 39.1599L157.184 59.8755L126.111 58.7326V66.1447L168.542 64.5093L139.467 37.4336L172.721 0L135.469 33.7084L117.57 17.1722L134.106 34.9804Z" fill="#243FDD"/>
<path d="M0.159219 25.1453C0.102517 24.7491 0.0494466 24.3625 0 23.9865C0.0530692 24.3138 0.105492 24.7022 0.159219 25.1453C2.11686 38.8259 8.40351 64.0547 19.3528 63.419C33.4358 62.6013 36.525 35.4347 36.8884 36.4341C37.0556 36.894 38.9781 23.6231 38.9781 23.6231C38.9781 23.6231 42.6125 24.1682 44.0662 24.1682C45.5199 24.1682 36.7976 68.8705 19.3528 66.0539C2.75713 63.3744 1.20929 33.8061 0.159219 25.1453Z" fill="#243FDD"/>
<path d="M49.7069 50.7412H41.8931C38.1134 52.8492 40.3183 55.2538 41.8931 56.1926H50.2521C56.703 58.1915 53.3413 65.3693 50.2521 65.3693H41.1663C40.7301 65.442 39.2885 64.1881 38.6222 63.5521C38.3497 62.0076 40.2577 62.0076 40.1668 62.0984C40.0941 62.1711 41.1965 62.9161 41.7114 63.2796H50.2521C53.3049 61.099 51.5241 58.9789 50.2521 58.1915C47.4355 58.1309 41.6205 58.028 41.6205 58.1006C41.6205 58.1915 37.0776 56.2835 37.8954 52.6492C38.5495 49.7417 40.8065 48.8331 41.8532 48.7423H49.7069C50.9789 48.3788 52.7961 50.4686 53.2504 50.7412C53.7047 51.0138 52.5235 53.1035 51.7967 52.104C51.2152 51.3045 50.1006 50.8624 49.7069 50.7412Z" fill="white"/>
<path d="M55.4233 64.7479V49.5746C56.1502 48.3389 57.1496 48.9386 57.4222 49.5746V64.7479C56.6954 65.8382 55.7868 65.2022 55.4233 64.7479Z" fill="white"/>
<path d="M55.4233 44.0323V42.3968C56.2956 41.3065 57.1194 41.9425 57.4222 42.3968V44.0323C56.6954 45.1952 55.7868 44.5168 55.4233 44.0323Z" fill="white"/>
<path d="M106.849 43.244C106.049 41.9356 105.183 42.6988 104.85 43.244V65.5951C105.65 66.6854 106.516 66.0494 106.849 65.5951V43.244Z" fill="white"/>
<path d="M112.677 56.1503L123.489 55.9686C122.689 52.2616 119.885 51.0925 118.583 50.9714H115.403C114.749 50.9714 113.616 51.6377 113.131 51.9708C108.407 56.2593 111.163 60.6629 113.131 62.3287C117.492 64.7273 121.006 62.4801 122.217 61.0566C123.816 60.6932 123.913 61.7532 123.762 62.3287C120.709 66.8352 115.1 65.539 112.677 64.3275C109.043 62.4377 108.376 58.0886 108.497 56.1503C109.442 50.6988 113.495 49.0331 115.403 48.8817H118.583C124.543 49.8266 125.791 54.9691 125.67 57.4223C125.524 58.0038 125.125 58.1492 124.943 58.1492H112.677C111.151 57.2769 112.041 56.4532 112.677 56.1503Z" fill="white"/>
</svg>
