<svg width="136" height="322" viewBox="0 0 136 322" fill="none" xmlns="http://www.w3.org/2000/svg">
<path d="M23.843 114.415L18.1249 116.146L13.3167 113.784L12.2966 114.466L13.1898 115.701L8.64071 114.79L5.37088 116.407L4.84155 121.029L7.56547 125.212L12.5557 125.377L17.6893 122.776L25.6351 120.727L23.843 114.415Z" fill="#EDD3B8"/>
<path d="M18.9353 114.807L61.5811 99.4429L97.9243 51.454L112.228 56.437L119.203 68.6099L78.8291 118.22L19.6466 125.876L18.9353 114.807Z" fill="#394456"/>
<path d="M88.5117 54.3312C91.3074 54.1548 97.9187 52.6218 97.9243 52.8816C97.8636 50.355 97.5934 47.8329 97.1358 45.3483C99.7274 44.3282 102.71 42.8311 103.069 40.0669C103.179 39.1968 102.997 38.3178 102.815 37.4593C102.065 33.9088 101.315 30.3588 100.571 26.8083C100.312 25.5804 100.036 24.3165 99.3248 23.2826C98.0732 21.4679 95.7572 20.7395 93.5792 20.4434C85.4845 19.3428 78.1122 25.0124 71.0322 28.0683C70.4422 28.3225 69.8246 28.5932 69.4111 29.0834C68.6942 29.9359 68.7659 31.1848 68.9203 32.2893C69.7143 38.0162 71.3024 46.3882 77.9633 47.979C79.4135 48.3264 80.9409 48.2983 82.3856 48.6716C85.8815 49.572 84.8449 52.9202 87.3869 54.2551C87.5689 54.3478 87.9714 54.3654 88.5117 54.3312Z" fill="#EDD3B8"/>
<path d="M55.295 19.7002C54.4844 16.8466 54.1701 13.9727 54.4348 11.6893C55.0523 6.34123 58.7082 -2.89096 65.6504 0.881214C69.4661 2.9556 72.361 5.03936 77.0369 4.25306C82.3635 3.35592 85.2805 2.09818 90.7615 3.82849C95.5532 5.34155 101.916 5.50586 106.284 7.73023C108.109 8.65935 109.592 10.1608 110.766 11.8371C114.841 17.6451 115.161 25.8478 111.56 31.9579C110.75 33.3282 109.774 34.5898 108.737 35.799C106.592 38.3008 104.039 41.3875 101.001 42.3977C100.825 39.6545 103.008 30.9047 100.819 28.7322C97.3397 25.2848 89.8185 26.8089 85.6995 27.8411C81.2055 28.9671 77.2906 32.3224 72.8297 33.1727C69.615 33.7842 65.4354 32.3522 62.6287 30.784C59.1604 28.8513 56.5908 24.3022 55.295 19.7002Z" fill="#727272"/>
<path d="M5.81179 69.5831L55.4108 79.321L75.1843 58.2622L91.743 67.0538L70.1774 105.137L0 79.0304L5.81179 69.5831Z" fill="#394456"/>
<path d="M125.379 308.848L126.096 314.363L114.913 321.206L108.247 316.357L113.485 310.18L124.662 303.338L125.379 308.848Z" fill="#3C3A38"/>
<path d="M122.407 140.388L124.585 157.127L109.939 232.354L125.77 307.007L114.251 310.509L74.9968 222.108L72.3887 194.918L76.3202 138.433L122.407 140.388Z" fill="#545150"/>
<path d="M48.8105 146.832L47.8511 217.691L63.4062 309.053H75.3717L82.926 224.752L99.2973 140.452L48.8105 146.832Z" fill="#545150"/>
<path d="M75.3 313.383L62.364 318.931L55.896 313.383L62.364 307.83H75.3V313.383Z" fill="#3C3A38"/>
<path d="M135.96 169.348C136.126 177.014 135.889 187.345 132.999 187.724C132.454 187.794 131.93 187.521 131.461 187.258C126.454 184.478 122.914 180.564 117.985 177.878C112.812 175.063 106.896 173.566 101.095 172.519C92.4269 170.906 83.5658 169.906 74.7267 169.749C68.4187 169.637 61.0684 169.395 54.8871 170.73C45.7889 172.692 49.4393 172.911 44.1899 180.564C41.488 179.567 38.7806 178.57 36.0787 177.572C34.7829 177.093 40.2032 128.503 42.7948 122.504C48.8768 108.4 55.2952 94.4813 61.7246 80.5715C64.4485 74.6704 66.8471 66.4886 71.115 61.9814C75.3002 57.5586 83.858 51.3211 89.6699 50.8733C95.3273 50.4377 104.387 54.3963 109.487 57.1897C116.65 61.1157 118.641 67.437 121.889 74.6885C124.861 81.3341 128.891 99.1776 130.027 106.321C131.4 114.973 132.68 123.642 133.667 132.344C134.775 142.054 135.536 151.809 135.696 161.58C135.712 162.665 135.883 165.706 135.96 169.348Z" fill="#37404E"/>
<path d="M76.2924 63.1333C76.2924 63.1333 60.5829 85.13 52.7253 103.984C48.7111 113.618 43.6933 144.836 41.7303 149.157C39.7618 153.477 37.9421 178.258 37.9421 178.258L44.1896 180.564C44.1896 180.564 52.3338 125.196 55.8683 114.197C59.4029 103.199 64.9004 94.95 65.6889 85.9158C66.4774 76.881 78.6525 63.1333 78.6525 63.1333H76.2924Z" fill="white"/>
</svg>
